# xmcd CD database file generated by Grip 2.96
# 
# Track frame offsets:
#       150
#       15862
#       33817
#       51905
#       71767
#       88997
#       102517
#       118750
#       137782
#       154112
#       158765
#       175650
#       182765
#       202162
#       217580
#       239225
#       248915
#       268307
# 
# Disc length: 3795 seconds
# 
# Revision: 0
# Processed by: cddbd v1.4PL0 Copyright (c) Steve Scherf et al.
# Submitted via: Grip 2.96
# 
DISCID=040ed112
DTITLE=Moby - Play
DYEAR=2000
DGENRE=Rock
TTITLE0=Honey
TTITLE1=Find My Baby
TTITLE2=Porcelain
TTITLE3=Why Does My Heart Feel So Bad? (2)
TTITLE4=South Side
TTITLE5=Rushing
TTITLE6=Bodyrock
TTITLE7=Natural Blues
TTITLE8=Machete
TTITLE9=7
TTITLE10=Run On
TTITLE11=Down Slow
TTITLE12=If Things Were Perfect
TTITLE13=Everloving
TTITLE14=Inside
TTITLE15=Guitar, Flute and String
TTITLE16=The Sky Is Broken
TTITLE17=My Weakness
EXTD=\nYEAR: 2000  ID3G:  17
EXTT0=
EXTT1=
EXTT2=
EXTT3=
EXTT4=
EXTT5=
EXTT6=
EXTT7=
EXTT8=
EXTT9=
EXTT10=
EXTT11=
EXTT12=
EXTT13=
EXTT14=
EXTT15=
EXTT16=
EXTT17=
PLAYORDER=
